<?xml version="1.0" encoding="UTF-8"?>
<svg xmlns="http://www.w3.org/2000/svg" xmlns:xlink="http://www.w3.org/1999/xlink" width="48" height="48" viewBox="600 600 1200 1200">
<!-- <rect x="-240" y="-240" width="2880" height="2880" fill="rgb(100%, 100%, 100%)" fill-opacity="1"/> - ФОН -->
<path fill-rule="evenodd" fill="rgb(99.21875%, 76.951599%, 20.776367%)" fill-opacity="1" d="M 1200 600.050781 C 1531.371094 600.050781 1800 868.679688 1800 1200.050781 C 1800 1531.425781 1531.371094 1800.054688 1200 1800.054688 C 868.628906 1800.054688 600 1531.425781 600 1200.050781 C 600 868.679688 868.628906 600.050781 1200 600.050781 "/>
<path fill-rule="evenodd" fill="rgb(78.90625%, 53.318787%, 15.696716%)" fill-opacity="1" d="M 1200 720.058594 C 1465.089844 720.058594 1679.988281 934.960938 1679.988281 1200.050781 C 1679.988281 1465.144531 1465.089844 1680.042969 1200 1680.042969 C 934.90625 1680.042969 720.011719 1465.144531 720.011719 1200.050781 C 720.011719 934.960938 934.90625 720.058594 1200 720.058594 Z M 1200 752.339844 C 1447.269531 752.339844 1647.71875 952.789062 1647.71875 1200.050781 C 1647.71875 1447.320312 1447.269531 1647.769531 1200 1647.769531 C 952.730469 1647.769531 752.285156 1447.320312 752.285156 1200.050781 C 752.285156 952.789062 952.730469 752.339844 1200 752.339844 "/>
<path fill-rule="evenodd" fill="rgb(99.21875%, 68.943787%, 18.821716%)" fill-opacity="1" d="M 1799.980469 1198.730469 L 1800 1200.050781 C 1800 1529.808594 1533.96875 1797.390625 1204.828125 1799.992188 L 1204.828125 1725.160156 C 1492.648438 1722.5625 1725.171875 1488.484375 1725.171875 1200.050781 L 1725.148438 1198.730469 L 1799.980469 1198.730469 "/>
<path fill-rule="evenodd" fill="rgb(100%, 81.639099%, 31.37207%)" fill-opacity="1" d="M 620.121094 1046.050781 L 620.449219 1044.761719 C 705.796875 726.238281 1032.011719 536.628906 1350.609375 619.308594 L 1331.238281 691.589844 C 1052.558594 619.609375 767.382812 785.53125 692.730469 1064.128906 L 692.402344 1065.421875 L 620.121094 1046.050781 "/>
<path fill-rule="evenodd" fill="rgb(94.921875%, 63.084412%, 17.259216%)" fill-opacity="1" d="M 1200 689.410156 C 1482.019531 689.410156 1710.648438 918.03125 1710.648438 1200.050781 C 1710.648438 1482.078125 1482.019531 1710.703125 1200 1710.703125 C 917.976562 1710.703125 689.351562 1482.078125 689.351562 1200.050781 C 689.351562 918.03125 917.976562 689.410156 1200 689.410156 Z M 1200 723.738281 C 1463.058594 723.738281 1676.308594 936.988281 1676.308594 1200.050781 C 1676.308594 1463.117188 1463.058594 1676.367188 1200 1676.367188 C 936.9375 1676.367188 723.6875 1463.117188 723.6875 1200.050781 C 723.6875 936.988281 936.9375 723.738281 1200 723.738281 "/>
<path fill-rule="evenodd" fill="rgb(94.921875%, 63.084412%, 17.259216%)" fill-opacity="1" d="M 1014.910156 1217 C 1014.769531 1216.949219 1014.621094 1216.910156 1014.480469 1216.871094 C 1013.398438 1216.539062 1012.328125 1216.210938 1011.300781 1215.871094 C 1011.210938 1215.851562 1011.140625 1215.820312 1011.058594 1215.789062 C 1009.148438 1215.179688 1007.328125 1214.550781 1005.578125 1213.910156 C 1005.300781 1213.808594 1005.011719 1213.710938 1004.730469 1213.609375 C 1003.921875 1213.308594 1003.128906 1213.011719 1002.359375 1212.699219 C 1001.980469 1212.550781 1001.609375 1212.398438 1001.238281 1212.25 C 1000.578125 1211.980469 999.910156 1211.71875 999.277344 1211.449219 C 999.277344 1211.441406 999.277344 1211.429688 999.277344 1211.421875 C 999.277344 1192.140625 1063.589844 1175.851562 1152.648438 1170.109375 L 1152.648438 1218.539062 L 1172.609375 1236.460938 C 1162.980469 1236.21875 1156.101562 1235.921875 1152.648438 1235.75 C 1095.109375 1233.21875 1046.019531 1226.351562 1014.910156 1217 Z M 1423.960938 1198.660156 C 1423.941406 1198.679688 1423.929688 1198.710938 1423.921875 1198.738281 C 1423.570312 1199.28125 1423.171875 1199.820312 1422.730469 1200.359375 C 1422.691406 1200.398438 1422.660156 1200.449219 1422.621094 1200.488281 C 1422.171875 1201.019531 1421.671875 1201.558594 1421.121094 1202.078125 C 1421.070312 1202.128906 1421.03125 1202.171875 1420.988281 1202.210938 C 1420.421875 1202.738281 1419.808594 1203.28125 1419.140625 1203.808594 C 1419.101562 1203.828125 1419.070312 1203.859375 1419.03125 1203.890625 C 1418.339844 1204.429688 1417.601562 1204.96875 1416.800781 1205.511719 L 1416.78125 1205.519531 C 1396.328125 1219.261719 1342 1230.191406 1272.578125 1234.640625 L 1272.578125 1169.058594 C 1340.808594 1172.101562 1397.109375 1181.238281 1425.578125 1193.378906 C 1425.578125 1193.390625 1425.589844 1193.390625 1425.589844 1193.398438 C 1425.589844 1195.179688 1425.03125 1196.929688 1423.960938 1198.660156 Z M 1390.929688 991.460938 L 1390.910156 991.441406 L 1014.339844 991.441406 L 1014.339844 1083.609375 L 1034.410156 1101.628906 L 1152.628906 1101.628906 L 1152.628906 1144.03125 C 1040.230469 1149.191406 955.699219 1171.460938 955.699219 1198.140625 C 955.699219 1202.761719 958.234375 1207.25 963.011719 1211.539062 L 983.085938 1229.558594 C 1004.21875 1248.539062 1069.238281 1263.621094 1152.628906 1269.140625 L 1152.628906 1445.933594 L 1172.699219 1463.957031 L 1272.648438 1463.957031 L 1272.648438 1270.199219 C 1384.800781 1265.039062 1469.191406 1242.800781 1469.191406 1216.140625 C 1469.191406 1211.511719 1466.648438 1207.019531 1461.871094 1202.730469 L 1441.789062 1184.710938 C 1441.550781 1184.488281 1441.269531 1184.269531 1441.011719 1184.050781 C 1440.761719 1183.839844 1440.511719 1183.621094 1440.25 1183.410156 C 1439.511719 1182.808594 1438.738281 1182.21875 1437.921875 1181.628906 C 1437.789062 1181.539062 1437.671875 1181.441406 1437.539062 1181.351562 C 1436.53125 1180.640625 1435.460938 1179.941406 1434.328125 1179.25 C 1434.171875 1179.148438 1434 1179.050781 1433.828125 1178.949219 C 1432.851562 1178.359375 1431.820312 1177.769531 1430.75 1177.179688 C 1430.488281 1177.039062 1430.230469 1176.898438 1429.96875 1176.769531 C 1428.828125 1176.148438 1427.640625 1175.550781 1426.398438 1174.949219 C 1426.289062 1174.890625 1426.171875 1174.839844 1426.058594 1174.78125 C 1423.210938 1173.410156 1420.109375 1172.078125 1416.789062 1170.78125 C 1416.589844 1170.699219 1416.390625 1170.621094 1416.191406 1170.550781 C 1414.628906 1169.941406 1413.03125 1169.339844 1411.378906 1168.761719 C 1411.269531 1168.71875 1411.171875 1168.679688 1411.070312 1168.640625 C 1407.429688 1167.359375 1403.550781 1166.101562 1399.460938 1164.890625 C 1399.378906 1164.859375 1399.289062 1164.839844 1399.199219 1164.808594 C 1397.230469 1164.230469 1395.199219 1163.648438 1393.121094 1163.089844 C 1393.03125 1163.058594 1392.929688 1163.039062 1392.839844 1163.011719 C 1386.328125 1161.238281 1379.339844 1159.570312 1371.910156 1158 C 1371.828125 1157.980469 1371.738281 1157.960938 1371.660156 1157.941406 C 1364.191406 1156.371094 1356.289062 1154.898438 1347.988281 1153.539062 L 1347.839844 1153.511719 C 1325.371094 1149.828125 1300.019531 1146.980469 1272.679688 1145.171875 L 1272.679688 1101.628906 L 1410.988281 1101.628906 L 1410.988281 1009.46875 Z M 1448.828125 1195.449219 C 1448.710938 1194.941406 1448.550781 1194.421875 1448.371094 1193.910156 C 1448.390625 1193.921875 1448.398438 1193.929688 1448.410156 1193.941406 C 1448.578125 1194.441406 1448.71875 1194.941406 1448.828125 1195.449219 "/>
<path fill-rule="evenodd" fill="rgba(202, 68, 255, 1)" fill-opacity="1" d="M 1252.601562 1235.75 C 1249.800781 1235.960938 1235.308594 1236.828125 1203 1236.828125 C 1177.300781 1236.828125 1159.050781 1236.058594 1152.648438 1235.75 C 1053.328125 1231.378906 979.203125 1214.101562 979.203125 1193.398438 C 979.203125 1172.699219 1053.328125 1155.429688 1152.648438 1150.988281 L 1152.648438 1218.539062 C 1159.148438 1219 1177.75 1220.101562 1203.441406 1220.101562 C 1234.28125 1220.101562 1249.730469 1218.820312 1252.511719 1218.558594 L 1252.511719 1151.039062 C 1351.621094 1155.449219 1425.589844 1172.738281 1425.589844 1193.398438 C 1425.589844 1214.050781 1351.640625 1231.339844 1252.511719 1235.730469 Z M 1252.601562 1144.050781 L 1252.601562 1083.609375 L 1390.910156 1083.609375 L 1390.910156 991.441406 L 1014.339844 991.441406 L 1014.339844 1083.609375 L 1152.628906 1083.609375 L 1152.628906 1144.03125 C 1040.230469 1149.191406 955.699219 1171.460938 955.699219 1198.140625 C 955.699219 1224.820312 1040.230469 1247.058594 1152.628906 1252.25 L 1152.628906 1445.933594 L 1252.578125 1445.933594 L 1252.578125 1252.179688 C 1364.71875 1247.011719 1449.109375 1224.769531 1449.109375 1198.121094 C 1449.109375 1171.460938 1364.789062 1149.21875 1252.578125 1144.03125 Z M 1252.601562 1144.050781 L 1252.601562 1144.050781 "/>
</svg>
